<svg xmlns="http://www.w3.org/2000/svg" width="280" height="294" fill="none"><g filter="url(#a)"><path fill="#162C4E" fill-rule="evenodd" d="M709.567-9.316c22.327-105.992-85.797-66.039-111.514-120.583-31.239-66.257 65.351-409.158-30.812-433.859-168.109-10.774-181.245 214.707-254.487 234.703-71.005 19.386-186.664 58.034-242.757 105.69C16.305-177.75-48.105-53.571 54.102 24.626c78.039 56.607 118.834 29.001 147.628 79.049 30.49 52.993 44.446 118.505 96.396 150.74 56.3 34.935 130.08 52.07 191.86 28.124 60.13-23.306 78.443-96.389 117.215-147.922 36.283-48.226 98.846-83.684 102.366-143.933Z" clip-rule="evenodd"/></g><defs><filter id="a" width="712.56" height="861.802" x=".023" y="-564.132" color-interpolation-filters="sRGB" filterUnits="userSpaceOnUse"><feFlood flood-opacity="0" result="BackgroundImageFix"/><feBlend in="SourceGraphic" in2="BackgroundImageFix" result="shape"/><feColorMatrix in="SourceAlpha" result="hardAlpha" values="0 0 0 0 0 0 0 0 0 0 0 0 0 0 0 0 0 0 127 0"/><feOffset dy="4"/><feGaussianBlur stdDeviation="15"/><feComposite in2="hardAlpha" k2="-1" k3="1" operator="arithmetic"/><feColorMatrix values="0 0 0 0 0 0 0 0 0 0 0 0 0 0 0 0 0 0 1 0"/><feBlend in2="shape" result="effect1_innerShadow_1_266"/></filter></defs></svg>