<svg xmlns="http://www.w3.org/2000/svg" width="249" height="209" fill="none"><g filter="url(#a)"><path fill="#162C4E" fill-rule="evenodd" d="M12.853 204.474c57.597-16.285 10.346-58.846 30.455-85.399C67.735 86.82 260.307 46.033 247.765-7.271 209.978-92.143 96.252-40.717 67.705-71.36c-27.676-29.707-76.218-76.283-113.911-91.455-36.08-14.522-113.357-14.126-125.45 55.854-7.716 52.637 16.245 65.48-.875 92.382-18.128 28.486-46.617 52.109-49.088 85.751-2.677 36.46 7.835 76.891 35.38 100.923 26.809 23.39 67.27 13.587 102.424 19.304 32.898 5.35 66.278 26.811 96.668 13.075Z" clip-rule="evenodd"/></g><defs><filter id="a" width="470.374" height="383.384" x="-222.022" y="-170.391" color-interpolation-filters="sRGB" filterUnits="userSpaceOnUse"><feFlood flood-opacity="0" result="BackgroundImageFix"/><feBlend in="SourceGraphic" in2="BackgroundImageFix" result="shape"/><feColorMatrix in="SourceAlpha" result="hardAlpha" values="0 0 0 0 0 0 0 0 0 0 0 0 0 0 0 0 0 0 127 0"/><feOffset dy="4"/><feGaussianBlur stdDeviation="15"/><feComposite in2="hardAlpha" k2="-1" k3="1" operator="arithmetic"/><feColorMatrix values="0 0 0 0 0 0 0 0 0 0 0 0 0 0 0 0 0 0 1 0"/><feBlend in2="shape" result="effect1_innerShadow_1_265"/></filter></defs></svg>