<svg xmlns="http://www.w3.org/2000/svg" width="182" height="146" fill="none"><g filter="url(#a)"><path fill="#162C4E" fill-rule="evenodd" d="M.735 142.194C44.839 129.73 8.64 97.099 24.032 76.756 42.729 52.045 190.194 20.844 180.573-20.01 151.609-85.064 64.53-45.687 42.658-69.179c-21.203-22.775-58.392-58.483-87.263-70.122-27.634-11.14-86.815-10.86-96.055 42.767-5.894 40.337 12.46 50.186-.643 70.798-13.874 21.825-35.684 39.92-37.566 65.702-2.04 27.94 6.022 58.928 27.124 77.354 20.539 17.933 51.522 10.432 78.445 14.824 25.196 4.11 50.765 20.567 74.035 10.05Z" clip-rule="evenodd"/></g><defs><filter id="a" width="360.198" height="294.77" x="-179.175" y="-145.12" color-interpolation-filters="sRGB" filterUnits="userSpaceOnUse"><feFlood flood-opacity="0" result="BackgroundImageFix"/><feBlend in="SourceGraphic" in2="BackgroundImageFix" result="shape"/><feColorMatrix in="SourceAlpha" result="hardAlpha" values="0 0 0 0 0 0 0 0 0 0 0 0 0 0 0 0 0 0 127 0"/><feOffset dy="4"/><feGaussianBlur stdDeviation="15"/><feComposite in2="hardAlpha" k2="-1" k3="1" operator="arithmetic"/><feColorMatrix values="0 0 0 0 0 0 0 0 0 0 0 0 0 0 0 0 0 0 1 0"/><feBlend in2="shape" result="effect1_innerShadow_1_215"/></filter></defs></svg>