<svg xmlns="http://www.w3.org/2000/svg" width="183" height="215" fill="none"><g filter="url(#a)"><path fill="#162C4E" fill-rule="evenodd" d="M525.073-5.302c18.45-78.247-62.455-50.527-80.555-91.455-21.987-49.717 55.77-302.424-15.11-322.463-124.488-10.986-138.254 156.083-192.932 169.616-53.008 13.12-139.477 39.738-181.93 74.099C13.91-142.615-36.076-51.623 38.332 8.217c56.869 43.39 87.617 23.633 108.08 61.28 21.667 39.863 30.849 88.72 68.803 113.562 41.133 26.923 95.547 40.95 141.794 24.282 45.012-16.223 59.898-70.123 89.573-107.67 27.771-35.137 74.805-60.333 78.491-104.973Z" clip-rule="evenodd"/></g><defs><filter id="a" width="527.741" height="638.275" x=".049" y="-419.739" color-interpolation-filters="sRGB" filterUnits="userSpaceOnUse"><feFlood flood-opacity="0" result="BackgroundImageFix"/><feBlend in="SourceGraphic" in2="BackgroundImageFix" result="shape"/><feColorMatrix in="SourceAlpha" result="hardAlpha" values="0 0 0 0 0 0 0 0 0 0 0 0 0 0 0 0 0 0 127 0"/><feOffset dy="4"/><feGaussianBlur stdDeviation="15"/><feComposite in2="hardAlpha" k2="-1" k3="1" operator="arithmetic"/><feColorMatrix values="0 0 0 0 0 0 0 0 0 0 0 0 0 0 0 0 0 0 1 0"/><feBlend in2="shape" result="effect1_innerShadow_1_217"/></filter></defs></svg>