<svg xmlns="http://www.w3.org/2000/svg" width="128" height="40" fill="none"><path fill="#DF2325" d="M17.272 30.945c.596-3.5 3.312-5.721 7.428-5.721h10.696c3.992 0 4.84-2.588 4.84-2.588-.596 3.5-2.22 5.72-6.336 5.72H22.928c-4.54 0-5.656 2.589-5.656 2.589Z"/><path fill="#EE4523" d="M35.211 29.024c-.908 1.348-1.96 1.466-3.956 1.466s-4.34.044-7.584 0c-3.491-.047-6.188 1.51-6.407 4.896.908-1.348 2.088-1.593 4.084-1.593 1.995 0 3.195-.043 6.44 0 3.487.052 6.215-1.47 7.423-4.769Z"/><path fill="#FE5F3E" d="M17.271 38.195c0-1.348 1.868-2.07 4.1-2.07 2.232 0 6.552.292 8.388-.988C29.26 36.614 24.7 40 20.143 40c-2.064 0-2.872-.983-2.872-1.805Z"/><path fill="#172C4F" d="M9.168 17.06c3.543.59 5.792 3.272 5.792 7.338v10.565c0 3.943 2.62 4.78 2.62 4.78-3.544-.588-5.792-2.192-5.792-6.258V22.648c0-4.489-2.62-5.587-2.62-5.587Z"/><path fill="#264A74" d="M11.11 34.777c-1.363-.897-1.483-1.936-1.483-3.908 0-1.971-.044-4.287 0-7.49.048-3.45-1.528-6.113-4.956-6.33 1.364.897 1.612 2.062 1.612 4.034 0 1.971.044 3.157 0 6.36-.048 3.45 1.488 6.14 4.827 7.334Z"/><path fill="#345A87" d="M1.832 17.062c1.364 0 2.096 1.845 2.096 4.05 0 2.2-.296 6.471 1 8.285C3.428 28.903 0 24.399 0 19.895c0-2.04 1-2.833 1.832-2.833Z"/><path fill="#DF2325" d="M23.228 9.056c-.596 3.5-3.312 5.72-7.428 5.72H5.1c-3.992 0-4.84 2.589-4.84 2.589.596-3.501 2.22-5.721 6.336-5.721h10.972c4.544 0 5.66-2.588 5.66-2.588Z"/><path fill="#EE4523" d="M5.288 10.976c.908-1.347 1.96-1.466 3.956-1.466s4.34-.043 7.584 0c3.492.047 6.188-1.51 6.408-4.895-.908 1.347-2.088 1.592-4.084 1.592-1.996 0-3.196.043-6.44 0-3.488-.051-6.216 1.47-7.424 4.769Z"/><path fill="#FE5F3E" d="M23.23 1.806c0 1.347-1.869 2.07-4.1 2.07-2.233 0-6.553-.292-8.388.988.5-1.478 5.06-4.864 9.615-4.864 2.064 0 2.872.984 2.872 1.806Z"/><path fill="#172C4F" d="M31.33 22.94c-3.543-.59-5.791-3.272-5.791-7.337V5.038c0-3.944-2.62-4.781-2.62-4.781 3.544.589 5.792 2.193 5.792 6.258v10.838c0 4.488 2.62 5.587 2.62 5.587Z"/><path fill="#264A74" d="M29.387 5.223c1.364.897 1.484 1.936 1.484 3.908 0 1.971.044 4.287 0 7.49-.048 3.45 1.528 6.113 4.956 6.33-1.364-.896-1.612-2.062-1.612-4.034 0-1.971-.044-3.157 0-6.36.048-3.45-1.488-6.14-4.828-7.334Z"/><path fill="#345A87" d="M38.666 22.94c-1.364 0-2.096-1.846-2.096-4.05 0-2.2.296-6.472-1-8.286 1.496.494 4.924 4.998 4.924 9.499.004 2.042-.996 2.837-1.828 2.837Z"/><path fill="#172C4F" d="M56.916 4.295v18.068h7.187v4.184H51.428V4.295h5.488ZM80.536 8.637h-8.312v4.5h7.348v4.184h-7.348v4.884h8.312v4.342h-13.8V4.295h13.8v4.342ZM98.124 22.616h-8.408l-1.348 3.931h-5.744l8.152-22.252h6.356l8.152 22.252h-5.808l-1.352-3.931ZM93.92 10.285l-2.76 8.147h5.552l-2.792-8.147ZM127.999 15.421c0 6.594-4.619 11.126-11.807 11.126h-8.44V4.295h8.44c7.188 0 11.807 4.5 11.807 11.126Zm-12.163 6.432c4.14 0 6.58-2.347 6.58-6.436 0-4.09-2.44-6.5-6.58-6.5h-2.6V21.85h2.6v.004ZM77.788 34.544h-2.3l-.396 1.11h-.94l1.968-5.432h1.044l1.968 5.432h-.948l-.396-1.11Zm-1.148-3.248-.9 2.521h1.796l-.896-2.52ZM86.86 32.66c0 1.672-1.156 2.695-2.915 2.695h-1.796v-5.424h1.796c1.76-.004 2.916 1.05 2.916 2.73Zm-2.915 1.968c1.296 0 1.992-.734 1.992-1.967 0-1.24-.697-2.007-1.992-2.007h-.892v3.974h.892ZM93.477 30.226h.948L92.36 35.65h-1.044l-2.072-5.424h.964l1.628 4.512 1.64-4.512ZM97.372 30.226h.9v5.424h-.9v-5.424ZM103.536 35.706c-1.1 0-1.944-.593-1.944-1.553h.964c.04.447.356.806.98.806.632 0 .988-.336.988-.798 0-1.312-2.916-.462-2.916-2.461 0-.953.768-1.545 1.888-1.545 1.052 0 1.796.545 1.872 1.477h-.996c-.032-.367-.356-.703-.924-.719-.52-.015-.924.233-.924.759 0 1.225 2.908.462 2.908 2.446 0 .81-.672 1.588-1.896 1.588ZM111.188 35.706c-1.548 0-2.808-1.146-2.808-2.782 0-1.624 1.256-2.774 2.808-2.774 1.564 0 2.808 1.146 2.808 2.774 0 1.636-1.24 2.782-2.808 2.782Zm0-.77c1.092 0 1.88-.783 1.88-2.008s-.792-1.991-1.88-1.991c-1.092 0-1.88.766-1.88 1.991s.792 2.007 1.88 2.007ZM119.096 30.226c1.304 0 1.944.742 1.944 1.623 0 .64-.348 1.328-1.272 1.553l1.36 2.248h-1.076l-1.264-2.169h-.688v2.17h-.9v-5.425h1.896Zm0 .727h-.996v1.817h.996c.704 0 1.02-.383 1.02-.92 0-.546-.316-.897-1.02-.897ZM126.104 35.706c-1.1 0-1.944-.593-1.944-1.553h.964c.04.447.356.806.98.806.632 0 .988-.336.988-.798 0-1.312-2.916-.462-2.916-2.461 0-.953.768-1.545 1.888-1.545 1.052 0 1.796.545 1.872 1.477h-.996c-.032-.367-.356-.703-.924-.719-.52-.015-.924.233-.924.759 0 1.225 2.908.462 2.908 2.446 0 .81-.672 1.588-1.896 1.588Z"/></svg>